<svg xmlns="http://www.w3.org/2000/svg" width="64" height="64" viewBox="0 0 64 64" role="img" aria-label="Dollar favicon">
  <defs>
    <linearGradient id="bg" x1="0" y1="0" x2="1" y2="1">
      <stop offset="0%" stop-color="#FBBF24"/>
      <stop offset="55%" stop-color="#22C55E"/>
      <stop offset="100%" stop-color="#3B82F6"/>
    </linearGradient>
    <filter id="shadow" x="-30%" y="-30%" width="160%" height="160%">
      <feDropShadow dx="0" dy="2" stdDeviation="2" flood-color="#0f172a" flood-opacity="0.35"/>
    </filter>
  </defs>

  <rect width="64" height="64" rx="14" fill="url(#bg)"/>
  <rect x="1" y="1" width="62" height="62" rx="13" fill="none" stroke="rgba(255,255,255,0.45)"/>

  <g filter="url(#shadow)">
    <path
      d="M36.7 18.8c-1.7-1.1-3.7-1.7-6-1.7-4.4 0-7.6 2.4-7.6 5.8 0 3.6 3 5 7.2 5.8 3.7.7 5.1 1.7 5.1 3.2 0 1.3-1.6 2.4-4.7 2.4-2.2 0-4.4-.6-6.4-1.9"
      fill="none"
      stroke="rgba(255,255,255,0.94)"
      stroke-width="5.4"
      stroke-linecap="round"
      stroke-linejoin="round"
    />
    <path
      d="M31.9 14.5v6.1M31.9 40.0v6.0"
      fill="none"
      stroke="rgba(255,255,255,0.94)"
      stroke-width="5.4"
      stroke-linecap="round"
    />
  </g>
</svg>

